<?xml version="1.0" encoding="utf-8"?>
<!-- Generator: Adobe Illustrator 22.0.0, SVG Export Plug-In . SVG Version: 6.00 Build 0)  -->
<svg version="1.1" id="Layer_1" xmlns="http://www.w3.org/2000/svg" xmlns:xlink="http://www.w3.org/1999/xlink" x="0px" y="0px"
	 viewBox="0 0 744 832" style="enable-background:new 0 0 744 832;" xml:space="preserve">
<style type="text/css">
	.st0{fill:url(#SVGID_1_);}
	.st1{fill:#1C2B6B;}
	.st2{fill:#F2DAD4;}
	.st3{opacity:0.5;fill:#B5BFD5;enable-background:new    ;}
	.st4{fill:#FFFFFF;stroke:#2B3E7A;stroke-width:2;stroke-miterlimit:10;}
	.st5{fill:#405491;}
	.st6{fill:#2B3E7A;}
	.st7{fill:#FFFFFF;}
	.st8{fill:url(#SVGID_2_);}
	.st9{fill:url(#SVGID_3_);}
	.st10{fill:url(#XMLID_3_);}
	.st11{fill:#1E3286;}
	.st12{fill:url(#SVGID_4_);}
	.st13{fill:url(#SVGID_5_);}
	.st14{clip-path:url(#SVGID_7_);}
	.st15{fill:none;stroke:#2B3E7A;stroke-miterlimit:10;}
	.st16{fill:url(#SVGID_8_);}
	.st17{fill:#CDDDF0;}
	.st18{fill:#5B75B5;}
	.st19{fill:#9EB3DD;}
	.st20{fill:url(#SVGID_9_);}
	.st21{fill:url(#SVGID_10_);}
	.st22{fill:#1F2E3B;}
	.st23{fill:none;stroke:#1C2B6B;stroke-width:2;stroke-linecap:round;stroke-miterlimit:10;}
</style>
<g>
	<g>
		
			<linearGradient id="SVGID_1_" gradientUnits="userSpaceOnUse" x1="539.1094" y1="-199.3134" x2="574.1387" y2="-199.3134" gradientTransform="matrix(-0.9977 -6.740000e-02 -6.740000e-02 0.9977 671.5495 855.7616)">
			<stop  offset="0.6961" style="stop-color:#B72D71"/>
			<stop  offset="1" style="stop-color:#EB606A"/>
		</linearGradient>
		<path class="st0" d="M127.7,602.1l18.4,20.9c0.6,0.7,0.8,1.6,0.6,2.4c-0.6,2.8-2.9,8.6-12.2,11.3c-1.1,0.3-2.4,0-3.2-0.9l-19-20.3
			L127.7,602.1z"/>
		
			<ellipse transform="matrix(0.7532 -0.6578 0.6578 0.7532 -370.6946 228.9883)" class="st1" cx="119.8" cy="608.5" rx="10.2" ry="2.8"/>
	</g>
	<path class="st2" d="M107.3,641.5l9.8-17.7l-1.1-3.3c-0.1-0.4,0.3-0.7,0.6-0.5l1.4,1c3,2.8,10.4-9.9,10.4-9.9
		c0.3-0.8,1.2-1.2,2-0.9c3,1.1,13.6,9.2,12.5,14c-2.3,5.9-11.1,11-11.1,11l-8.8,13.5L107.3,641.5z"/>
	<path class="st3" d="M345.1,765.9c10.7,1.2,28,3.3,28.1,6.3c0.1,2.8-13.9,5-18.7,5.8c-55.8,9-16-10.6-89.9-4
		c-38.7,3.4-32.9-1.3-67.2,0.1c-44.6,1.9-133,15.1-188-1.3c-4.8-1.4-5.7-2-1.6-4.5C28.2,756.2,102.3,739.6,345.1,765.9z"/>
	<g>
		<path class="st1" d="M235,675.3c0,0-22.7-15.7-37.8-7.9s-81.2,31.3-83.4,33.8c-2.2,2.5,11.6,12.7,11.6,12.7l89.9-24.1L235,675.3z"
			/>
		<path class="st4" d="M335.5,733c0,0,3.4-5.8,7.6-5.2s4.2,3,6.6,3s12.7,0,16.3-1.2s12.7-5.4,16.9-5.4s5.4,5.4,3.6,10.3
			s-7.2,15.7-16.9,21.1c-9.6,5.4-26.5,18.1-29,19.9c-2.4,1.8-8.5,4.8-13.9,4.2s-6-3-6-4.2s-1.2-3-1.8-3.6s-3.6-4.8-4.2-7.8
			s-1.8-3.6-2.4-4.2s-1.8-1.8-0.6-3.6s2-0.6,2.8-1.2s12.9-14.5,12.9-14.5L335.5,733z"/>
		<path class="st5" d="M331,734.1c0,0,4.4-1.4,8.6-1.4s7.8,1.2,8.5,6c0.6,4.8-4.8,14.5-11.5,18.1c-6.6,3.6-9.6,4.8-13.3,3.6
			s-7.8-3.6-7.8-6.6C315.4,750.7,331,734.1,331,734.1z"/>
		<path class="st1" d="M344.6,733.6c-1.4-0.7-3.2-0.9-5.1-0.9c-0.6,0-1.2,0-1.8,0.1c-0.3,0-0.5-0.1-0.5-0.1s2.3-3.6,4.7-3.6
			s3,0.6,3,1.2C345,730.8,344.9,733.3,344.6,733.6L344.6,733.6z"/>
		<path class="st2" d="M322.1,732c0,0,4.2,1.8,6,1.8s4.2,0,4.8,1.8c0.6,1.8,1.8,12.7-2.4,16.3s-8.5,4.8-11.5,4.2s-10.9-4.2-10.9-4.2
			L322.1,732z"/>
		<path class="st6" d="M323.3,730.2c0.3,3.1-8.2,22.4-15.7,24.1c-10.3,2.4-35.6-9.7-43.4-14.5c-7.6-4.7-48.3-19.9-49.5-20.5
			s-2.4-2.4-3-1.2s0,7.2-4.2,10.9s-32.6,21.7-36.2,25.3s-19.9,16.9-25.3,19.9c-5.4,3-32,6.6-47.1,4.8s-25.3-15.7-25.3-15.7
			l30.8-54.3c0,0,10.6-8.5,14.6-10.3c4.1-1.8,10.1,0.6,10.7,2.5s1.8,4.2,4.2,2.4s55.5-31.4,72.4-35.6c16.9-4.2,39.2,14.5,44,17.5
			s53.7,37.4,57.3,38C311.2,724.2,322.7,724.8,323.3,730.2z"/>
		<path class="st2" d="M133.2,557.7c0,0-1.2,12.7-2.4,13.9s-3,0.6-3,4.8s-0.6,13.9-1.8,14.5s-5.4-1.8-6-1.8s-6.6,4.8-7.8,7.2
			c-1.2,2.4-5.4,9-9.1,9.7c-3.6,0.6-8.4-6.6-10.9-4.8s-3.6,5.4-3.6,7.2s-29-6.6-29-17.5c0-3.1,7.8-19.3,9.7-22.9
			c1.8-3.6,4.2-19.3,4.8-23.5c0.6-4.2,7.8-16.3,19.9-20.5C106.1,519.7,134.4,543.8,133.2,557.7z"/>
		<path class="st1" d="M96.4,519.7c-8,2-19.9,14.5-21.7,20.5s-6.3,21.7-6,24.7c0.6,6.6,12.1,15.7,13.9,12.7s7.5-13.2,7.8-16.9
			c0.6-6,3.6-12.1,7.8-12.1c1.2,0,4.8,5.4,5.4,8.5c0.7,3.6-3,10.9-5.4,12.7s-8.7,5.4-9.7,9c-1.8,6.6,1.8,20.5,3.6,22.3
			c1.8,1.8,7.4,5.7,10.9,4.8c4.8-1.2,7.8-8.5,10.8-11.9c1.2-1.4,3.7-2.6,4.9-4.3c1.3-1.8-13-8.5-12.7-12.2
			c1.2-14.5,5.4-31.8,14.5-30.8c10.3,1.2,11.5,10.9,18.1,12.1c3.6,0.7,18.7,3,21.7-15.7c1-6-15.1,0.6-29-8.5
			C127.8,532.4,113.3,515.5,96.4,519.7z"/>
		<path class="st1" d="M122.5,581.2c0.9,0.8,3.8-1,6.4-4c2.6-3,4.1-6,3.2-6.8c-0.9-0.8-3.8,1-6.4,4
			C123,577.4,121.6,580.4,122.5,581.2z"/>
		<path class="st5" d="M131.1,574.4c-0.4,0.7-0.9,1.4-1.5,2.1l-0.7-5.1c0.6-0.5,1.2-0.8,1.7-1L131.1,574.4z"/>
		<path class="st5" d="M127.7,572.3l0.7,5.4c-0.4,0.4-0.7,0.7-1.1,1.1l-0.7-5.5C127,573,127.4,572.6,127.7,572.3z"/>
		<g>
			<path class="st7" d="M91.6,612.6c0-3.1-4.8-6.6-7.8-9.7c-3-3-23.5-16.9-24.1-19.3s-20.5,6.6-27.8,24.7s-15.7,76,5.4,114.6
				s38,48.9,38.6,45.2c0.6-3.6,0-6.6,6.6-10.3s19.3-18.7,22.3-24.1s16.9-31.4,15.7-34.4c-1.2-3-13.3-44-19.3-56.1
				s-11.5-20.5-11.5-24.1C89.8,615.6,91.6,615,91.6,612.6z"/>
		</g>
		<polygon class="st1" points="188.7,676.5 179.7,667.5 118.2,683.2 107.3,695.8 		"/>
		<path class="st6" d="M49.3,611.2c12-2.6,22.3,16.5,24,24.9c0,0,2.8,43.1,6.8,41.7s26.1-42.2,29.7-44.8c3.6-2.5,19.3,5.6,19.4,9.3
			c0.1,5.3-7,32-43.3,72.4c-9,10-26.5,3.4-32.3-8.8c-4.8-10.2-10.4-25.7-16.5-49C36.7,645,25.5,616.3,49.3,611.2z"/>
		<g>
			<path class="st1" d="M186.3,676.5l45.8-71.8h-12.6c-0.4,0-0.8,0.2-1,0.5l-40.2,61.4c-0.3,0.5-0.2,1.1,0.1,1.5L186.3,676.5z"/>
			<path class="st5" d="M188.7,676.5l44.6-69.7c0.6-0.9-0.1-2-1.1-2l0,0l-45.8,71.8l0,0C186.9,677.4,188.2,677.4,188.7,676.5z"/>
			<polygon class="st5" points="210.9,638.1 207.9,642.7 212.2,615 215.1,610.6 			"/>
			<polygon class="st5" points="205.9,645.9 201.2,653.3 205.4,625.4 210.1,618.2 			"/>
		</g>
		<path class="st5" d="M109.2,698.7l78.6-17.8c0.6-0.1,1-0.6,1-1.2v-3.2L108,695.4c-0.9,0.2-1.2,1.3-0.7,2l0.7,1
			C108.3,698.6,108.8,698.8,109.2,698.7z"/>
	</g>
</g>
<path class="st7" d="M559.5,152.4C458.4,91.4,410.6-66.1,254.5,46c-156.1,112-91.4,342.2,58.2,397.9
	C462.4,499.5,654.8,468,709,364.6C801.6,187.9,627.3,193.4,559.5,152.4z"/>
<g>
	<g>
		<path class="st2" d="M542.4,300.6l-64.8,5.2l-1.4,0.1c-0.5,0-13.9-4.1-14.7-13.6c-0.8-10.2,11.2-25.9,13.2-27.8l26.3-26.4
			c0,0,10.2,3,11.6,5.1l-26,39.4l51.5-10.6c7.9-1.7,15.6,3.4,17.3,11.2c1.7,7.9-3.4,15.6-11.2,17.3
			C543.7,300.4,543,300.5,542.4,300.6z"/>
	</g>
	<g>
		
			<linearGradient id="SVGID_2_" gradientUnits="userSpaceOnUse" x1="-376.717" y1="-537.454" x2="-323.2673" y2="-537.454" gradientTransform="matrix(-1 0 0 1 195.3662 824)">
			<stop  offset="0" style="stop-color:#B72D71"/>
			<stop  offset="1" style="stop-color:#EB476A"/>
		</linearGradient>
		<path class="st8" d="M518.7,269.5l8.7,38.1l33-9.6c8.9-2.6,13.8-12.1,10.8-21l0,0c-2.5-7.5-9.9-12.3-17.6-11.4L518.7,269.5z"/>
	</g>
</g>
<linearGradient id="SVGID_3_" gradientUnits="userSpaceOnUse" x1="1263.9065" y1="-817.3026" x2="1302.1033" y2="-817.3026" gradientTransform="matrix(1.690000e-02 -0.9999 -0.9999 -1.690000e-02 -320.4228 1507.5083)">
	<stop  offset="0.6961" style="stop-color:#B72D71"/>
	<stop  offset="1" style="stop-color:#EB606A"/>
</linearGradient>
<path class="st9" d="M537.2,235.4l-21.7,21.2c-0.7,0.7-1.7,1-2.6,0.8c-3-0.5-9.6-2.7-13-12.7c-0.4-1.2-0.1-2.6,0.8-3.6l21.1-21.8
	L537.2,235.4z"/>
<ellipse transform="matrix(0.7189 -0.6951 0.6951 0.7189 -8.9543 432.0427)" class="st1" cx="529.7" cy="227.1" rx="3.1" ry="11.2"/>
<path class="st2" d="M518.5,236l-4.7,6.7c-0.4,0.6-1.2,0.9-2,0.6l-11.3-3.3c-0.3-0.6-0.2-1.4,0.3-1.9l14.3-14.7
	c0.4-0.4,0.9-0.6,1.4-0.5l0,0c1.1,0.1,1.8,1.3,1.3,2.3l-3.6,4.8C514.3,230.2,519.2,235.1,518.5,236z"/>
<g>
	
		<linearGradient id="XMLID_3_" gradientUnits="userSpaceOnUse" x1="284.6837" y1="-456.637" x2="235.8233" y2="-456.7189" gradientTransform="matrix(1 0 0 1 0 824)">
		<stop  offset="0" style="stop-color:#E7ECF7"/>
		<stop  offset="0.9987" style="stop-color:#969AA1"/>
	</linearGradient>
	<path id="XMLID_1_" class="st10" d="M285,382.4h-20.8c-0.7,0-1.3-0.5-1.4-1.2l-3.3-28.9h30.1l-3.3,28.9
		C286.3,381.9,285.7,382.4,285,382.4z"/>
	<ellipse class="st1" cx="274.6" cy="352.6" rx="15.1" ry="1.7"/>
	<path class="st11" d="M273.3,296.8c-8.2,0.7-5.5,25.3-5.5,25.3c2,21.2,4.8,30.8,6.9,31.5c2,0.7,6.2-30.1,6.2-37.6
		C280.8,316,281.5,296.1,273.3,296.8z"/>
	<path class="st7" d="M274.3,350.2L274.3,350.2c-0.2,0-0.4-0.2-0.3-0.4c2.7-22.3-0.6-50.3-0.7-50.6c0-0.2,0.1-0.4,0.3-0.4
		c0.2,0,0.4,0.1,0.4,0.3c0,0.3,3.4,28.4,0.7,50.7C274.6,350.1,274.5,350.2,274.3,350.2z"/>
	
		<linearGradient id="SVGID_4_" gradientUnits="userSpaceOnUse" x1="274.3934" y1="-505.1343" x2="252.3177" y2="-505.1343" gradientTransform="matrix(1 0 0 1 0 824)">
		<stop  offset="0" style="stop-color:#B72D71"/>
		<stop  offset="1" style="stop-color:#EB476A"/>
	</linearGradient>
	<path class="st12" d="M248.6,285.2c-0.7,3.4,3.4,4.1,4.1,8.9c0.7,4.8-1.4,6.2-0.7,8.9c0.7,2.7,4.8,3.4,5.5,10.3
		c0.7,6.9-2.1,6.2-1.4,10.3c0.7,4.1,4.8,4.1,5.5,7.5s0.7,8.2,2,12.3c1.4,4.1,5.5,10.3,7.5,10.3s7.5-11.6,6.2-15.1
		c-1.4-3.4-3.4-4.1-3.4-6.9c0-2.7,2.7-9.6,2-14.4s-6.9-6.9-7.5-10.3c-0.7-3.4,1.4-12.3-3.4-16.4S249.3,281.8,248.6,285.2z"/>
	
		<linearGradient id="SVGID_5_" gradientUnits="userSpaceOnUse" x1="278.7138" y1="-501.5767" x2="309.4191" y2="-501.5767" gradientTransform="matrix(1 0 0 1 0 824)">
		<stop  offset="0" style="stop-color:#E7ECF7"/>
		<stop  offset="0.9987" style="stop-color:#CDD1DB"/>
	</linearGradient>
	<path class="st13" d="M313.6,292.7c2.4,2.4-5.5,3.4-6.2,8.2c-0.7,4.8-0.7,6.9-3.4,9.6c-2.7,2.7-6.9,3.4-6.2,7.5s2,8.2,0,10.3
		s-6.9,2-8.2,5.5c-1.4,3.4-0.7,7.5-3.4,11c-2.7,3.4-6.9,10.3-10.3,8.9s-1.4-17.1,0-19.9c1.4-2.7,2.7-4.8,2.7-6.9s-0.7-5.5,0.7-8.9
		c1.4-3.4,8.9-4.8,9.6-6.9c0.7-2,1.4-13,5.5-15.8C298.6,292.7,309.5,288.6,313.6,292.7z"/>
	<path class="st7" d="M277.1,352.5c-0.1,0-0.1,0-0.2,0c-0.2-0.1-0.2-0.3-0.1-0.5c0,0,2.8-4.6,3.4-7c0.1-0.6,0.3-1.5,0.5-2.5
		c0.8-3.8,1.9-9.5,3.7-11.3c2.5-2.5,6.6-10.4,9.5-20.4c3.5-12.3,15.2-15.9,15.3-16c0.2,0,0.4,0,0.4,0.2s0,0.4-0.2,0.4
		c-0.1,0-11.4,3.5-14.8,15.5c-2.9,10.1-7,18.1-9.7,20.7c-1.6,1.6-2.8,7.5-3.5,11c-0.2,1.1-0.4,2-0.5,2.6c-0.6,2.4-3.3,6.9-3.4,7.1
		C277.3,352.4,277.2,352.5,277.1,352.5z"/>
	<path class="st7" d="M271.2,351c-0.2,0-0.3-0.1-0.3-0.3c0-0.1-0.1-9-2.7-11.6s-4.1-10.7-4.9-26.2c-0.7-14.1-10.8-25.7-10.9-25.8
		c-0.1-0.1-0.1-0.4,0-0.5s0.4-0.1,0.5,0s10.4,11.9,11,26.2c0.7,15.1,2.2,23.3,4.7,25.8c2.8,2.8,2.9,11.7,2.9,12.1
		C271.5,350.8,271.4,351,271.2,351L271.2,351z"/>
</g>
<g>
	<g>
		<g>
			<g>
				<g>
					<defs>
						<path id="SVGID_6_" d="M559.5,152.4C458.4,91.4,410.6-66.1,254.5,46c-156.1,112-91.4,342.2,58.2,397.9
							C462.4,499.5,654.8,468,709,364.6C801.6,187.9,627.3,193.4,559.5,152.4z"/>
					</defs>
					<clipPath id="SVGID_7_">
						<use xlink:href="#SVGID_6_"  style="overflow:visible;"/>
					</clipPath>
					<g class="st14">
						<g>
							<path class="st1" d="M440,169.4c0,6.5-19.1,12.1-42.6,12.1s-42.5-4.6-42.5-11.1c2.1-5.1,19-12.4,42.5-12.4
								S438.7,163.3,440,169.4z"/>
							<circle class="st7" cx="397.4" cy="164.1" r="8.8"/>
							<path class="st6" d="M440,169.4c0,0-17.8-7.9-41.1-7.9c-23.2,0-44.1,8.9-44.1,8.9s12.5-43.1,44.1-43.1
								C426.4,127.2,440,169.4,440,169.4z"/>
							<line class="st15" x1="397.4" y1="5" x2="397.4" y2="148.8"/>
						</g>
						<g>
							<rect x="242.7" y="382.2" class="st5" width="353" height="5"/>
							<polygon class="st2" points="554.4,629.1 558.1,642.5 539.9,648 534.2,631.5 							"/>
							<polygon class="st2" points="444.6,619.2 444.6,630.2 461.1,630.2 463,619.2 							"/>
							<path class="st1" d="M569.2,380.4l-117,59.4c-10.9,5.5-17.4,16.9-16.7,29.1l8.8,150.3h18l24.2-160.9l91.1-64L569.2,380.4z"/>
							<path class="st1" d="M561.3,174.5c0,0,34.1-3.9,44.3,29.8c0.6,2,1.3,3.9,2.2,5.7c2.5,4.7,8,13.7,15.2,17.7
								c28.8,16.2,35.7,78.9-27,70.7c-78.4-10.3-48.1-19.6-30.4-47.9c12.6-20.2-39.8-47.9-39.8-47.9L561.3,174.5z"/>
							
								<linearGradient id="SVGID_8_" gradientUnits="userSpaceOnUse" x1="-432.0037" y1="-503.2" x2="-346.0293" y2="-503.2" gradientTransform="matrix(-1 0 0 1 195.3662 824)">
								<stop  offset="0" style="stop-color:#B72D71"/>
								<stop  offset="1" style="stop-color:#EB476A"/>
							</linearGradient>
							<path class="st16" d="M574.5,255.4l-16.8,7.5c-10,4.5-16.5,14.4-16.3,25.4c0.3,22.1,5.3,76.9,23.9,97.9h56.9
								c8.8-38.9,3.7-98.6,3.7-98.6c0.6-14.6-10.2-27.3-24.8-29L574.5,255.4z"/>
							<g>
								<g>
									<g>
										<path class="st2" d="M567.3,276.5L567.3,276.5c-5.9-0.6-10.3-5.8-9.8-11.8l3.2-36.3l21.7,2.1l-3.2,36.1
											C578.7,272.7,573.3,277.1,567.3,276.5z"/>
										<path class="st2" d="M553.8,254.5l-0.9-0.1c-14.5-1.2-25.2-14-24-28.5l2.7-31.7l53.3,4.5l-2.7,31.7
											C581,245,568.3,255.8,553.8,254.5z"/>
									</g>
									<path class="st1" d="M586.5,219.1l-6.4,8.2c0,0-7,3.8-5.9-9.4c1-11.2-7.3-11-7.3-11s-31.5,14.6-44.3-2.9
										c-10.1-13.8,14.5-29.7,38.8-29.5l27.5,19.9L586.5,219.1z"/>
									<path class="st2" d="M577,227c-0.5,4.8,3.1,9.1,7.9,9.6c4.8,0.5,9.1-3.1,9.6-7.9s-3.1-9.1-7.9-9.6
										C581.7,218.6,577.4,222.2,577,227z"/>
									<path class="st7" d="M583.3,231.5c-0.1,0.9,0.6,1.6,1.4,1.7s1.6-0.6,1.7-1.4c0.1-0.9-0.6-1.6-1.4-1.7
										C584.1,230,583.4,230.6,583.3,231.5z"/>
								</g>
							</g>
							<path class="st6" d="M622.2,386.1h-56.9l-91,55c-10.7,6.5-15,19.9-9.9,31.4l69.8,158.8l20.2-2.4l-37.5-153.2
								c31.5-1.3,90-6.1,105.3-23.1C648,423.8,622.2,386.1,622.2,386.1z"/>
							<g>
								<path class="st17" d="M428.1,287.1l32.4,87H355.2l-29.9-81.9c-0.9-2.5,0.9-5.1,3.5-5.1H428.1z"/>
								<path class="st18" d="M428.2,287.1h5c2.7,0,5.1,1.7,6.1,4.2l30.5,82.8h-9.2L428.2,287.1z"/>
								<path class="st19" d="M358,382.1h102.6v-8h-105v5.6C355.6,381.1,356.7,382.1,358,382.1z"/>
								
									<ellipse transform="matrix(0.6407 -0.7678 0.7678 0.6407 -113.9257 419.8217)" class="st7" cx="391.6" cy="331.6" rx="11.9" ry="17.1"/>
								<path class="st18" d="M460.6,382.1h65.1c2.3,0,4.2-1.8,4.2-4l0,0c0-2.2-1.9-4-4.2-4h-65.1V382.1z"/>
								<g>
									
										<linearGradient id="SVGID_9_" gradientUnits="userSpaceOnUse" x1="401.7991" y1="502.6673" x2="379.5572" y2="497.5988" gradientTransform="matrix(1 0 0 -1 0 832)">
										<stop  offset="0" style="stop-color:#B72D71"/>
										<stop  offset="1" style="stop-color:#EB476A"/>
									</linearGradient>
									<path class="st20" d="M398,328.4c-1,1.9-1.5,2.9-2.6,4.9c-0.1,0.2,0,0.4,0.2,0.6s0.5,0.1,0.6,0c1-1.9,1.5-2.9,2.6-4.8
										c0.2-0.3,0.1-0.7-0.2-1.1c-0.3-0.4-0.7-0.6-1.1-0.6c-2.4,0-3.6,0-6,0c-0.2,0-0.4-0.1-0.5-0.4c-0.1-0.2-0.2-0.4-0.2-0.6
										c0-0.6,0-0.9,0-1.5s-0.3-1.4-0.9-1.9c-0.6-0.6-1.4-0.9-2-0.9c-0.7,0-1.2,0.3-1.4,0.9c-0.2,0.6,0,1.3,0.5,1.9
										c4.5,5.8,6.8,8.8,11.4,14.6c0.1,0.1,0.1,0.1,0,0.2c0,0-0.1,0-0.2,0c-6.1-4.5-9.1-6.8-15.2-11.3c-0.1-0.1-0.1-0.1-0.1-0.2
										c0,0,0-0.1,0.1-0.1c2,0,3,0,5,0c0.2,0,0.4-0.2,0.3-0.4c-0.1-0.2-0.3-0.4-0.6-0.4c-2,0-3,0-5,0c-0.4,0-0.7,0.2-0.7,0.6
										s0.2,0.8,0.6,1.1c2.8,2,4.1,3.1,6.9,5.1c0.1,2.1,0.1,3.1,0.2,5.2c0,0.4,0.3,0.9,0.8,1.1c0.2,0.1,0.4,0.2,0.6,0.2
										s0.4-0.1,0.6-0.3c1-1.1,1.5-1.6,2.5-2.7c1.4,1.1,2.1,1.6,3.6,2.6c0.3,0.2,0.5,0.3,0.8,0.3c0.2,0,0.4-0.1,0.5-0.2
										c0.3-0.3,0.3-0.7-0.1-1.2c-4.5-5.9-6.8-8.8-11.4-14.6c-0.3-0.4-0.4-0.8-0.3-1.2c0.1-0.3,0.4-0.5,0.8-0.5s0.9,0.2,1.2,0.5
										c0.4,0.3,0.6,0.8,0.6,1.1c0,0.6,0,0.9,0,1.5c0,0.4,0.1,0.8,0.3,1.1c0.4,0.6,0.9,0.9,1.5,1l0,0c2.4,0,3.6,0,6,0
										c0.1,0,0.1,0,0.2,0.1C398,328.3,398,328.4,398,328.4L398,328.4z"/>
								</g>
							</g>
							<g>
								<g>
									<path class="st2" d="M612.8,305.6L588.4,367l-0.5,1.4c-1.5,3.6-5,5.9-8.7,5.8l-69.5-0.5c-2.8,0-5.1-2.3-5.1-5.2
										c0-2.6,1.9-4.7,4.4-5l68.7-10.2l-9.2,7.2l16.4-64c2-7.9,10-12.6,17.9-10.6s12.6,10,10.6,17.9
										C613.2,304.4,613,305,612.8,305.6z"/>
									<path class="st2" d="M517.2,362.6l-23.7-0.5c-5.9,0-10.6,5.4-10.6,12l0,0h34.6L517.2,362.6z"/>
								</g>
								<g>
									
										<linearGradient id="SVGID_10_" gradientUnits="userSpaceOnUse" x1="-423.4077" y1="-528.2324" x2="-378.9338" y2="-528.2324" gradientTransform="matrix(-1 0 0 1 195.3662 824)">
										<stop  offset="0" style="stop-color:#B72D71"/>
										<stop  offset="1" style="stop-color:#EB476A"/>
									</linearGradient>
									<path class="st21" d="M574.3,313.3l38,9.5l6.2-34.5c1.7-9.3-4.7-18.1-14-19.4l0,0c-7.8-1.1-15.4,3.4-18.1,10.8L574.3,313.3
										z"/>
								</g>
							</g>
							<path class="st22" d="M528,635.2l-8.9,8.8l-19.9,4.8c-2,0.5-3.7,2-4.4,4l-1,2.9c-0.5,1.4,0.6,2.9,2.1,2.9L560,657
								c2.1,0,3.7-1.8,3.5-3.9l-5-18.2l-9.7,2.3c-3.2,1.1-6.8,0.7-9.7-1l-3.4-2C533.2,632.8,530.1,633.2,528,635.2z"/>
							<path class="st22" d="M436.1,622.6l-8.9,8.8l-19.9,4.8c-2,0.5-3.7,2-4.4,4l-1,2.9c-0.5,1.4,0.6,2.9,2.1,2.9l58-1.2
								c2.1,0,3.7-1.8,3.5-3.9l-1.5-18.5l-7.1,2.4c-3.2,1.1-6.8,0.7-9.7-1l-3.4-2C441.2,620.2,438.1,620.6,436.1,622.6z"/>
						</g>
					</g>
				</g>
				<g>
					<defs>
						<path id="SVGID_11_" d="M559.5,152.4C458.4,91.4,410.6-66.1,254.5,46c-156.1,112-91.4,342.2,58.2,397.9
							C462.4,499.5,654.8,468,709,364.6C801.6,187.9,627.3,193.4,559.5,152.4z"/>
					</defs>
					<clipPath id="SVGID_12_">
						<use xlink:href="#SVGID_11_"  style="overflow:visible;"/>
					</clipPath>
				</g>
			</g>
		</g>
	</g>
</g>
<path class="st23" d="M503.4,252.4c0,0-63.4,34.6-95.4,237.6S201.4,678.5,143.2,632.7"/>
</svg>
